<?xml version="1.0" encoding="utf-8"?>
<!-- Generator: Adobe Illustrator 16.0.0, SVG Export Plug-In . SVG Version: 6.00 Build 0)  -->
<!DOCTYPE svg PUBLIC "-//W3C//DTD SVG 1.1//EN" "http://www.w3.org/Graphics/SVG/1.1/DTD/svg11.dtd">
<svg version="1.1" id="Layer_1" xmlns="http://www.w3.org/2000/svg" xmlns:xlink="http://www.w3.org/1999/xlink" x="0px" y="0px"
	 width="1475px" height="345px" viewBox="0 0 1475 345" enable-background="new 0 0 1475 345" xml:space="preserve">
<path fill="#1A1A1A" d="M240.243,145.409c-8.988-22.598-18.709-39.848-28.914-51.512c-19.925-23.324-46.408-34.988-79.21-34.988
	c-33.773,0-61.474,12.635-84.071,37.175c-22.598,24.784-33.773,55.885-33.773,93.55c0,34.989,9.96,66.331,29.885,93.544
	c22.112,29.888,49.811,44.463,84.313,44.463c23.813,0,43.736-2.915,59.773-8.985c22.598-8.266,33.776-22.113,33.776-42.039
	c0-6.805-0.488-11.66-1.215-15.063c-0.975-3.402-3.402-6.805-7.776-10.934c-2.187-2.676-6.075-3.886-11.663-3.886
	c-3.888,0-7.776,0.483-12.149,1.699c-4.374,1.215-10.449,4.373-18.222,10.444c-15.552,10.934-25.028,16.769-28.914,18.228
	c-3.891,1.215-7.776,2.187-12.638,2.187c-11.661,0-20.649-5.107-27.698-16.04c-5.1-8.259-7.775-18.71-7.775-30.371
	c0-4.373,1.701-8.747,4.859-13.847c3.158-5.106,6.804-8.748,10.934-10.451c4.374-1.699,12.639-2.915,25.515-2.915
	c1.212,0,14.822,0.972,40.333,2.67c6.561,0.489,14.337,0.972,23.328,0.972h0.486c11.661,0,20.652-0.972,27.699-2.914
	c7.045-1.942,11.178-5.589,12.634-11.179c3.403-11.66,5.104-20.409,5.104-26.48C245.346,160.96,243.645,153.185,240.243,145.409
	L240.243,145.409z M167.107,153.673c-2.187,7.773-7.29,13.362-14.822,16.765c-6.804,2.917-14.821,4.859-23.813,4.859
	c-8.988,0-17.249-1.702-24.295-5.59c-7.776-3.888-12.635-8.747-13.365-13.365c-0.972-3.884-1.216-7.288-1.216-10.449
	c0-17.249,8.992-29.884,26.73-36.689c4.856-1.698,9.959-2.672,16.034-2.672c12.88,0,22.839,4.863,30.374,14.336
	c4.373,6.805,6.561,13.851,6.561,20.411C169.295,144.923,168.323,149.297,167.107,153.673L167.107,153.673z M291.269,57.938
	c6.074,0,13.365,1.215,21.623,3.402c5.104,1.212,14.825,8.747,31.104,35.474c7.291,11.175,14.336,16.764,22.112,16.764
	c10.448,0,23.325-8.747,38.632-26.483c21.138-23.813,26.486-27.212,27.213-27.701c6.805-1.702,14.336-2.188,21.626-2.188
	c4.374,0,7.773,0.486,10.449,1.216c2.187,0.972,4.374,2.672,6.804,5.101c2.184,2.675,3.403,6.563,3.403,11.664
	c0,8.992-2.92,17.739-9.48,25.512c-14.819,18.224-26.483,33.775-34.258,46.41c-10.935,16.523-16.035,28.671-16.035,36.447v12.632
	c0,5.589,1.212,11.179,4.37,16.768c5.59,10.934,13.365,23.811,24.299,38.146c10.448,14.336,21.138,26.73,31.104,36.693
	c1.698,1.696,4.859,5.588,8.743,14.335c2.917,6.805,4.863,12.877,4.863,17.739c0,5.1-1.702,9.473-4.863,12.876
	c-3.884,3.886-8.988,6.072-15.063,6.072c-3.888,0-7.291-0.482-9.963-1.21c-2.917-0.977-8.992-2.92-16.764-6.077
	c-9.963-4.862-18.224-12.15-24.299-20.652c-2.917-4.374-8.747-12.876-16.037-26.486c-2.917-5.101-6.561-8.991-9.963-12.149
	c-4.373-3.401-8.988-5.59-14.822-5.59c-9.474,0-18.221,3.892-25.511,12.151c-3.888,4.373-8.747,11.659-13.851,22.6
	c-6.075,12.144-8.988,16.762-11.175,18.948c-4.859,5.589-10.937,8.99-18.224,10.934c-8.261,2.188-14.822,3.402-18.709,4.374
	c-3.888,0.972-7.291,1.216-10.449,1.216c-5.589,0-10.449-1.698-13.851-5.102c-3.399-3.401-5.1-7.776-5.1-13.847
	c0-5.589,0.971-10.939,2.914-16.041c2.187-5.101,4.859-9.474,7.776-12.632l14.336-17.257l11.664-13.847
	c13.365-16.523,22.109-29.399,26.727-39.851c2.672-6.805,3.888-13.359,3.888-20.408c0-4.862-0.486-8.746-0.972-11.178
	c-0.489-2.432-1.216-4.856-2.673-6.806c-0.974-5.587-6.074-16.762-32.074-50.535c-25.025-32.56-30.374-47.141-30.374-54.187
	c0-6.56,2.917-10.934,9.963-12.876C279.12,59.395,285.679,57.938,291.269,57.938 M608.599,61.825
	c28.914,0,56.374,10.934,80.911,32.557c28.673,25.029,43.253,57.59,43.253,95.979c0,40.333-12.639,73.136-37.664,97.916
	c-23.811,23.328-53.212,34.994-88.687,34.994c-30.615,0-58.072-12.882-81.885-38.152c-24.781-26.479-37.175-59.28-37.175-96.944
	c0-22.597,10.934-48.355,32.075-76.054C544.938,79.32,574.823,61.825,608.599,61.825 M615.889,273.46
	c20.652,0,35.474-7.776,44.466-22.602c8.744-14.819,12.635-36.687,12.635-67.546c0-20.41-4.374-37.66-12.88-51.511
	c-8.991-14.821-21.623-22.112-37.661-22.112c-19.925,0-37.661,8.747-51.997,26.486c-12.635,15.066-18.954,31.104-18.954,47.137
	c0,23.816,5.104,44.951,16.037,62.689C578.956,264.467,594.993,273.46,615.889,273.46 M865.912,70.087
	c32.072,0,54.914,3.885,68.765,11.175c11.661,6.075,19.438,15.552,23.811,28.672l3.888,8.988l0.485,1.216
	c0.975,2.672,1.216,4.859,1.216,6.804c0,3.888-1.701,6.561-5.104,8.258c-2.917,1.702-9.96,3.403-25.997,3.403
	c-6.074,0-11.664-1.701-16.764-5.101c-16.041-10.449-28.188-15.548-37.665-15.548h-7.29c-13.847,1.212-25.997,11.66-35.474,30.37
	c-8.992,17.739-13.848,37.174-13.848,58.07c0,19.443,2.672,35.96,7.287,49.324c7.29,20.414,19.925,30.371,37.661,30.371
	c16.768,0,29.888-5.584,38.876-16.523l0.489-0.482l0.485-0.488c6.56-11.661,12.879-23.811,19.437-35.96
	c0.972,0,1.701-0.482,3.888-0.482c6.564,0,15.066,2.187,25.515,6.561c10.445,4.374,17.735,8.258,21.139,11.172
	c2.187,1.704,2.913,4.862,2.913,8.991c0,12.639-8.258,25.997-25.023,38.88c-20.41,16.035-46.652,25.997-78.727,29.398
	c-3.402,0.484-8.262,0.484-14.333,0.484c-36.692,0-62.689-16.519-80.185-50.535c-12.638-25.025-18.953-54.914-18.953-88.687
	c0-34.508,13.851-64.148,40.577-88.203C825.82,80.535,846.476,70.087,865.912,70.087 M1131.246,67.17
	c22.842,0,40.577,6.802,52.482,20.411c14.825,17.25,22.111,50.296,22.111,97.436v65.842c0,10.939,0.972,18.709,3.403,25.031
	c6.802,18.955,7.289,22.84,7.289,23.328c0,3.403-0.487,8.258-1.699,14.818c0,0-0.972,2.188-7.776,6.078
	c-5.59,2.914-11.664,4.855-17.739,4.855c-5.104,0-12.636-2.674-21.623-7.775c-6.078-2.914-10.935-4.855-15.066-4.855l-31.104,1.209
	c-0.967,0-1.696,0-22.839,6.077c-7.286,2.187-16.033,3.403-25.511,3.403c-19.439,0-34.988-6.562-46.652-19.443
	c-12.149-12.876-17.735-30.37-17.735-51.994c0-29.888,12.635-51.511,38.146-65.848c16.037-8.991,42.764-16.766,80.426-24.297
	c7.775-1.701,11.178-9.477,11.178-22.598c0-7.29-1.216-14.822-3.889-22.109c-3.888-10.934-11.175-13.365-16.767-13.365
	c-6.802,0-18.222,4.374-35.475,13.847c-19.922,10.938-27.213,12.639-29.885,12.639c-1.216,0-1.701-0.486-2.187-0.486l-0.489-0.488
	l-0.485-0.486c-5.101-2.914-9.959-6.561-14.333-9.963c-3.402-2.914-5.589-6.561-6.561-11.661c0-1.215,0.972-8.75,34.503-23.813
	C1087.996,72.759,1111.079,67.17,1131.246,67.17 M1105.245,280.991c5.59,0,10.938-1.217,15.552-4.375
	c6.074-3.884,11.179-9.963,15.067-17.738c2.916-6.071,4.855-12.632,4.855-20.407c0-14.337-6.072-24.788-17.247-31.587
	c-3.402-2.187-7.29-2.919-12.152-2.919c-9.959,0-18.951,4.862-27.698,13.854s-12.879,18.954-12.879,29.399
	c0,4.373,0.485,7.775,1.215,9.474c5.104,14.337,14.337,22.113,27.216,23.815C1101.361,280.507,1103.548,280.991,1105.245,280.991
	 M1425.248,6.182c3.888,0,7.776,1.216,11.667,4.373c6.072,6.076,10.932,10.935,14.333,13.366c0.486,0.971,3.888,6.075,6.562,41.063
	c2.187,26.727,2.916,59.773,2.916,98.164c0,43.736-1.215,79.696-3.888,106.42c-0.485,2.193-0.972,5.107-0.972,9.48
	c0,5.1,0.972,11.179,2.184,18.221c2.19,8.992,2.19,10.935,2.19,11.179c0,3.402-1.216,6.078-4.859,8.265
	c-0.485,0-2.187,0.482-6.075,0.972c-3.888,0.482-6.563,0.482-7.775,0.482c-7.29,0-14.822,0-22.839,0.489
	c-8.265,0-17.739,1.215-27.215,2.913c-9.475,1.703-19.926,3.401-30.615,4.373c-10.935,1.215-20.652,1.699-30.375,1.699
	c-27.698,0-48.836-11.661-65.845-35.96c-16.767-24.293-25.514-52.722-25.028-84.797c0-28.916,3.888-51.51,11.664-67.064
	c6.075-11.661,16.768-23.81,32.56-36.445c8.259-6.56,15.064-11.664,20.652-14.821c7.776-4.374,15.067-6.561,21.627-6.561h3.886
	c5.103,0,10.934,1.216,16.037,3.402c7.776,2.914,15.065,4.859,22.597,4.859c9.478,0,17.251-3.888,22.599-12.149
	c5.104-7.287,7.776-15.552,7.776-23.813c0-12.876,2.187-24.295,6.071-32.798c5.104-11.179,8.991-12.879,9.963-12.879
	c6.315-2.428,8.746-2.428,10.206-2.428 M1351.628,283.178c5.104,0,10.448-0.972,15.066-2.671
	c15.063-4.373,25.025-15.068,29.399-32.801c2.672-10.451,3.887-26.003,3.887-47.626c0-17.739-4.373-33.775-12.634-47.622
	c-9.963-16.764-22.599-25.029-38.149-25.029c-13.363,0-25.997,8.265-37.177,24.299c-10.933,15.552-16.521,32.801-16.521,51.999
	c0,23.327,2.671,40.333,7.289,51.993c5.104,12.639,16.039,20.653,32.562,25.026C1340.694,282.206,1346.039,283.178,1351.628,283.178
	"/>
</svg>
